<svg xmlns="http://www.w3.org/2000/svg" version="1.1" xmlns:xlink="http://www.w3.org/1999/xlink" xmlns:svgjs="http://svgjs.dev/svgjs" viewBox="0 0 8.229445613698953 1.9209162047142438"><g transform="matrix(1,0,0,1,0.3136081023571218,0.44495810235712197)"><g><path d=" M 0.168 0.06399999999999983 L 0.168 0.7609999999999999 L 0.077 0.7609999999999999 L 0.077 0.06399999999999983 L 0.168 0.06399999999999983 M 0.7519716796875 0.2634999999999999 Q 0.8139716796875001 0.3239999999999999 0.8139716796875001 0.4379999999999999 L 0.8139716796875001 0.7609999999999999 L 0.7239716796875001 0.7609999999999999 L 0.7239716796875001 0.4509999999999999 Q 0.7239716796875001 0.3689999999999999 0.6829716796875 0.3254999999999999 Q 0.6419716796875 0.28199999999999986 0.5709716796875001 0.28199999999999986 Q 0.4989716796875 0.28199999999999986 0.4564716796875 0.3269999999999999 Q 0.41397167968750004 0.3719999999999999 0.41397167968750004 0.4579999999999999 L 0.41397167968750004 0.7609999999999999 L 0.3229716796875 0.7609999999999999 L 0.3229716796875 0.21299999999999986 L 0.41397167968750004 0.21299999999999986 L 0.41397167968750004 0.29099999999999987 Q 0.44097167968750006 0.2489999999999999 0.48747167968750005 0.22599999999999987 Q 0.5339716796875 0.20299999999999985 0.5899716796875001 0.20299999999999985 Q 0.6899716796875001 0.20299999999999985 0.7519716796875 0.2634999999999999 M 1.043986328125 0.7484999999999999 Q 0.993986328125 0.7269999999999999 0.964986328125 0.6884999999999999 Q 0.935986328125 0.6499999999999999 0.932986328125 0.5999999999999999 L 1.026986328125 0.5999999999999999 Q 1.030986328125 0.6409999999999999 1.065486328125 0.6669999999999999 Q 1.099986328125 0.6929999999999998 1.155986328125 0.6929999999999998 Q 1.207986328125 0.6929999999999998 1.2379863281249999 0.6699999999999999 Q 1.2679863281250001 0.6469999999999999 1.2679863281250001 0.6119999999999999 Q 1.2679863281250001 0.5759999999999998 1.235986328125 0.5584999999999999 Q 1.203986328125 0.5409999999999999 1.136986328125 0.5239999999999999 Q 1.075986328125 0.5079999999999999 1.037486328125 0.4914999999999999 Q 0.998986328125 0.47499999999999987 0.971486328125 0.4424999999999999 Q 0.943986328125 0.40999999999999986 0.943986328125 0.3569999999999999 Q 0.943986328125 0.3149999999999999 0.968986328125 0.2799999999999999 Q 0.993986328125 0.24499999999999988 1.039986328125 0.22449999999999992 Q 1.085986328125 0.20399999999999985 1.144986328125 0.20399999999999985 Q 1.235986328125 0.20399999999999985 1.2919863281250001 0.2499999999999999 Q 1.347986328125 0.2959999999999999 1.351986328125 0.3759999999999999 L 1.260986328125 0.3759999999999999 Q 1.2579863281249999 0.3329999999999999 1.226486328125 0.3069999999999999 Q 1.194986328125 0.2809999999999999 1.141986328125 0.2809999999999999 Q 1.092986328125 0.2809999999999999 1.063986328125 0.3019999999999999 Q 1.034986328125 0.3229999999999999 1.034986328125 0.3569999999999999 Q 1.034986328125 0.3839999999999999 1.052486328125 0.4014999999999999 Q 1.069986328125 0.4189999999999999 1.096486328125 0.4294999999999999 Q 1.122986328125 0.4399999999999999 1.169986328125 0.4529999999999999 Q 1.228986328125 0.4689999999999999 1.265986328125 0.4844999999999999 Q 1.302986328125 0.4999999999999999 1.329486328125 0.5309999999999999 Q 1.355986328125 0.5619999999999998 1.356986328125 0.6119999999999999 Q 1.356986328125 0.6569999999999999 1.331986328125 0.6929999999999998 Q 1.306986328125 0.7289999999999999 1.261486328125 0.7494999999999999 Q 1.215986328125 0.7699999999999999 1.156986328125 0.7699999999999999 Q 1.093986328125 0.7699999999999999 1.043986328125 0.7484999999999999 M 1.487958984375 0.10599999999999987 Q 1.469958984375 0.08799999999999986 1.469958984375 0.06199999999999983 Q 1.469958984375 0.03599999999999992 1.487958984375 0.017999999999999905 Q 1.505958984375 -1.1102230246251565e-16 1.531958984375 -1.1102230246251565e-16 Q 1.556958984375 -1.1102230246251565e-16 1.574458984375 0.017999999999999905 Q 1.591958984375 0.03599999999999992 1.591958984375 0.06199999999999983 Q 1.591958984375 0.08799999999999986 1.574458984375 0.10599999999999987 Q 1.556958984375 0.12399999999999989 1.531958984375 0.12399999999999989 Q 1.505958984375 0.12399999999999989 1.487958984375 0.10599999999999987 M 1.575958984375 0.21299999999999986 L 1.575958984375 0.7609999999999999 L 1.484958984375 0.7609999999999999 L 1.484958984375 0.21299999999999986 L 1.575958984375 0.21299999999999986 M 2.0814306640625 0.23499999999999988 Q 2.1349306640625 0.2659999999999999 2.1609306640625 0.3129999999999999 L 2.1609306640625 0.21299999999999986 L 2.2529306640625 0.21299999999999986 L 2.2529306640625 0.7729999999999999 Q 2.2529306640625 0.8479999999999999 2.2209306640625 0.9064999999999999 Q 2.1889306640625 0.9649999999999999 2.1294306640625003 0.9979999999999999 Q 2.0699306640625 1.031 1.9909306640625 1.031 Q 1.8829306640625 1.031 1.8109306640625 0.9799999999999999 Q 1.7389306640625 0.9289999999999999 1.7259306640625 0.8409999999999999 L 1.8159306640625 0.8409999999999999 Q 1.8309306640625 0.8909999999999999 1.8779306640625 0.9214999999999999 Q 1.9249306640625 0.952 1.9909306640625 0.952 Q 2.0659306640625 0.952 2.1134306640625002 0.9049999999999999 Q 2.1609306640625 0.8579999999999999 2.1609306640625 0.7729999999999999 L 2.1609306640625 0.6579999999999999 Q 2.1339306640625 0.7059999999999998 2.0809306640625 0.7379999999999999 Q 2.0279306640625 0.7699999999999999 1.9569306640625 0.7699999999999999 Q 1.8839306640625 0.7699999999999999 1.8244306640625 0.7339999999999999 Q 1.7649306640625 0.698 1.7309306640625 0.6329999999999999 Q 1.6969306640625 0.5679999999999998 1.6969306640625 0.4849999999999999 Q 1.6969306640625 0.4009999999999999 1.7309306640625 0.3374999999999999 Q 1.7649306640625 0.2739999999999999 1.8244306640625 0.23899999999999988 Q 1.8839306640625 0.20399999999999985 1.9569306640625 0.20399999999999985 Q 2.0279306640625 0.20399999999999985 2.0814306640625 0.23499999999999988 M 2.1359306640625 0.3779999999999999 Q 2.1109306640625 0.3319999999999999 2.0684306640625 0.3074999999999999 Q 2.0259306640625 0.28299999999999986 1.9749306640625 0.28299999999999986 Q 1.9239306640625 0.28299999999999986 1.8819306640625 0.3069999999999999 Q 1.8399306640625 0.3309999999999999 1.8149306640625 0.3769999999999999 Q 1.7899306640625001 0.4229999999999999 1.7899306640625001 0.4849999999999999 Q 1.7899306640625001 0.5479999999999999 1.8149306640625 0.5944999999999999 Q 1.8399306640625 0.6409999999999999 1.8819306640625 0.6654999999999999 Q 1.9239306640625 0.69 1.9749306640625 0.69 Q 2.0259306640625 0.69 2.0684306640625 0.6654999999999999 Q 2.1109306640625 0.6409999999999999 2.1359306640625 0.5944999999999999 Q 2.1609306640625 0.5479999999999999 2.1609306640625 0.4859999999999999 Q 2.1609306640625 0.4239999999999999 2.1359306640625 0.3779999999999999 M 2.7909560546875 0.22949999999999993 Q 2.8409560546875 0.2559999999999999 2.8694560546875 0.3089999999999999 Q 2.8979560546875 0.3619999999999999 2.8979560546875 0.4379999999999999 L 2.8979560546875 0.7609999999999999 L 2.8079560546875 0.7609999999999999 L 2.8079560546875 0.4509999999999999 Q 2.8079560546875 0.3689999999999999 2.7669560546875 0.3254999999999999 Q 2.7259560546875 0.28199999999999986 2.6549560546875 0.28199999999999986 Q 2.5829560546875 0.28199999999999986 2.5404560546875 0.3269999999999999 Q 2.4979560546875 0.3719999999999999 2.4979560546875 0.4579999999999999 L 2.4979560546875 0.7609999999999999 L 2.4069560546875 0.7609999999999999 L 2.4069560546875 0.020999999999999908 L 2.4979560546875 0.020999999999999908 L 2.4979560546875 0.29099999999999987 Q 2.5249560546875 0.2489999999999999 2.5724560546875 0.22599999999999987 Q 2.6199560546875 0.20299999999999985 2.6789560546875 0.20299999999999985 Q 2.7409560546875 0.20299999999999985 2.7909560546875 0.22949999999999993 M 3.157970703125 0.28799999999999987 L 3.157970703125 0.6109999999999999 Q 3.157970703125 0.6509999999999999 3.174970703125 0.6674999999999999 Q 3.191970703125 0.6839999999999999 3.2339707031250002 0.6839999999999999 L 3.300970703125 0.6839999999999999 L 3.300970703125 0.7609999999999999 L 3.218970703125 0.7609999999999999 Q 3.142970703125 0.7609999999999999 3.104970703125 0.7259999999999999 Q 3.066970703125 0.6909999999999998 3.066970703125 0.6109999999999999 L 3.066970703125 0.28799999999999987 L 2.995970703125 0.28799999999999987 L 2.995970703125 0.21299999999999986 L 3.066970703125 0.21299999999999986 L 3.066970703125 0.07499999999999984 L 3.157970703125 0.07499999999999984 L 3.157970703125 0.21299999999999986 L 3.300970703125 0.21299999999999986 L 3.300970703125 0.28799999999999987 L 3.157970703125 0.28799999999999987" fill="#382d5e" fill-rule="nonzero"></path></g><g><path d=" M 5.39619327617221 0.06399999999999983 L 5.39619327617221 0.1379999999999999 L 5.206193276172209 0.1379999999999999 L 5.206193276172209 0.7609999999999999 L 5.115193276172209 0.7609999999999999 L 5.115193276172209 0.1379999999999999 L 4.924193276172209 0.1379999999999999 L 4.924193276172209 0.06399999999999983 L 5.39619327617221 0.06399999999999983 M 5.66770890117221 0.22899999999999987 Q 5.712208901172209 0.20299999999999985 5.776208901172209 0.20299999999999985 L 5.776208901172209 0.2969999999999999 L 5.752208901172209 0.2969999999999999 Q 5.59920890117221 0.2969999999999999 5.59920890117221 0.4629999999999999 L 5.59920890117221 0.7609999999999999 L 5.5082089011722095 0.7609999999999999 L 5.5082089011722095 0.21299999999999986 L 5.59920890117221 0.21299999999999986 L 5.59920890117221 0.3019999999999999 Q 5.62320890117221 0.2549999999999999 5.66770890117221 0.22899999999999987 M 5.8811947410159595 0.3374999999999999 Q 5.915194741015959 0.2739999999999999 5.974694741015959 0.23899999999999988 Q 6.03419474101596 0.20399999999999985 6.1071947410159595 0.20399999999999985 Q 6.17919474101596 0.20399999999999985 6.2321947410159595 0.23499999999999988 Q 6.285194741015959 0.2659999999999999 6.311194741015959 0.3129999999999999 L 6.311194741015959 0.21299999999999986 L 6.40319474101596 0.21299999999999986 L 6.40319474101596 0.7609999999999999 L 6.311194741015959 0.7609999999999999 L 6.311194741015959 0.6589999999999999 Q 6.284194741015959 0.7069999999999999 6.230694741015959 0.7384999999999999 Q 6.17719474101596 0.7699999999999999 6.106194741015959 0.7699999999999999 Q 6.03319474101596 0.7699999999999999 5.9741947410159595 0.7339999999999999 Q 5.915194741015959 0.698 5.8811947410159595 0.6329999999999999 Q 5.84719474101596 0.5679999999999998 5.84719474101596 0.4849999999999999 Q 5.84719474101596 0.4009999999999999 5.8811947410159595 0.3374999999999999 M 6.28619474101596 0.3779999999999999 Q 6.261194741015959 0.3319999999999999 6.21869474101596 0.3074999999999999 Q 6.176194741015959 0.28299999999999986 6.125194741015959 0.28299999999999986 Q 6.07419474101596 0.28299999999999986 6.032194741015959 0.3069999999999999 Q 5.9901947410159595 0.3309999999999999 5.965194741015959 0.3769999999999999 Q 5.94019474101596 0.4229999999999999 5.94019474101596 0.4849999999999999 Q 5.94019474101596 0.5479999999999999 5.965194741015959 0.5944999999999999 Q 5.9901947410159595 0.6409999999999999 6.032194741015959 0.6654999999999999 Q 6.07419474101596 0.69 6.125194741015959 0.69 Q 6.176194741015959 0.69 6.21869474101596 0.6654999999999999 Q 6.261194741015959 0.6409999999999999 6.28619474101596 0.5944999999999999 Q 6.311194741015959 0.5479999999999999 6.311194741015959 0.4859999999999999 Q 6.311194741015959 0.4239999999999999 6.28619474101596 0.3779999999999999 M 6.5572201316409595 0.3374999999999999 Q 6.591220131640959 0.2739999999999999 6.6517201316409595 0.23899999999999988 Q 6.71222013164096 0.20399999999999985 6.790220131640959 0.20399999999999985 Q 6.89122013164096 0.20399999999999985 6.956720131640959 0.2529999999999999 Q 7.022220131640959 0.3019999999999999 7.043220131640959 0.3889999999999999 L 6.945220131640959 0.3889999999999999 Q 6.931220131640959 0.3389999999999999 6.890720131640959 0.3099999999999999 Q 6.85022013164096 0.2809999999999999 6.790220131640959 0.2809999999999999 Q 6.71222013164096 0.2809999999999999 6.66422013164096 0.3344999999999999 Q 6.61622013164096 0.3879999999999999 6.61622013164096 0.4859999999999999 Q 6.61622013164096 0.585 6.66422013164096 0.6389999999999999 Q 6.71222013164096 0.6929999999999998 6.790220131640959 0.6929999999999998 Q 6.85022013164096 0.6929999999999998 6.89022013164096 0.6649999999999999 Q 6.93022013164096 0.6369999999999999 6.945220131640959 0.585 L 7.043220131640959 0.585 Q 7.02122013164096 0.6689999999999999 6.955220131640959 0.7194999999999999 Q 6.889220131640959 0.7699999999999999 6.790220131640959 0.7699999999999999 Q 6.71222013164096 0.7699999999999999 6.6517201316409595 0.7349999999999999 Q 6.591220131640959 0.7 6.5572201316409595 0.6359999999999999 Q 6.52322013164096 0.5719999999999998 6.52322013164096 0.4859999999999999 Q 6.52322013164096 0.4009999999999999 6.5572201316409595 0.3374999999999999 M 7.47021476054721 0.7609999999999999 L 7.25521476054721 0.5189999999999999 L 7.25521476054721 0.7609999999999999 L 7.1642147605472095 0.7609999999999999 L 7.1642147605472095 0.020999999999999908 L 7.25521476054721 0.020999999999999908 L 7.25521476054721 0.4559999999999999 L 7.46621476054721 0.21299999999999986 L 7.59321476054721 0.21299999999999986 L 7.33521476054721 0.4859999999999999 L 7.594214760547209 0.7609999999999999 L 7.47021476054721 0.7609999999999999" fill="#382d5e" fill-rule="nonzero"></path></g><g></g><g clip-path="url(#SvgjsClipPath1003)"><g clip-path="url(#SvgjsClipPath1001b75998ab-14df-4156-9e05-e63d7b1b26ca)"><path d=" M 4.297190791976397 0.9247668588582864 L 3.9273156371112488 0.9247668588582864 C 3.915966947812731 0.9247668588582864 3.9067670173965183 0.9155669284420737 3.9067670173965183 0.9042182391435557 L 3.9067670173965183 0.8133522427650178 C 3.906460303068216 0.7831608704059165 3.890821857129904 0.7551974710350353 3.8652588055727612 0.7391306283554095 C 3.6926087916637482 0.6282851010533606 3.615200303647261 0.41581683929636437 3.6760834170556156 0.2198882688239644 C 3.7369665304639708 0.02395969835156539 3.9211600366676733 -0.1072179999947045 4.12622627594984 -0.10069145938562254 C 4.373332748045424 -0.089079076019107 4.56787264324986 0.11435613781363524 4.568432572210839 0.3617346786746722 C 4.566376148489948 0.5143179655086575 4.488163129550695 0.6557676986366204 4.3600284710640445 0.7386374614822575 C 4.334078569373601 0.7547618900127699 4.318101773654202 0.7829689847809335 4.317616119972839 0.813516631722736 L 4.317616119972839 0.9042182391435557 C 4.317616323387567 0.9155189538706964 4.308491303290839 0.9246990545716994 4.297190791976475 0.9247668588582857 Z M 3.947864256825979 0.883669619428825 L 4.276642172261667 0.883669619428825 L 4.276642172261667 0.813516631722736 C 4.277082869338914 0.7690410382264842 4.300106102559546 0.72784075335755 4.337753767293274 0.7041568776009403 C 4.45434129716445 0.628732097998687 4.5254912710631015 0.5000050912442653 4.527335332781378 0.36115931732265977 L 4.547883952496109 0.3614469979986657 L 4.527335332781378 0.36115931732265927 C 4.526839281143189 0.1360893170411726 4.349856078072599 -0.049011718104058105 4.125034456006382 -0.05959421995616143 C 3.938252192022781 -0.06580061838682863 3.7703541098277205 0.05358116571797919 3.7148775489534254 0.23204260332812976 C 3.6594009880791303 0.41050404093828075 3.7300273841921023 0.6040335956655103 3.8874102176252423 0.7048144334318115 C 3.9247572544195957 0.7283797746519893 3.947515604865758 0.7693571993831676 3.9477820623471205 0.8135166317227346 Z" fill="#c84449" transform="matrix(1,0,0,1,0,0)" fill-rule="nonzero"></path></g><g clip-path="url(#SvgjsClipPath1001b75998ab-14df-4156-9e05-e63d7b1b26ca)"><path d=" M 4.297190791976397 1.0633467502144285 L 3.9273156371112488 1.0633467502144285 C 3.915966947812731 1.0633467502144285 3.9067670173965183 1.0541468197982158 3.9067670173965183 1.0427981304996976 L 3.9067670173965183 0.9042182391435557 C 3.9067670173965183 0.8928695498450377 3.915966947812731 0.883669619428825 3.9273156371112488 0.883669619428825 L 4.297190791976397 0.883669619428825 C 4.308539481274916 0.883669619428825 4.317739411691128 0.8928695498450377 4.317739411691128 0.9042182391435557 L 4.317739411691128 1.0427981304996976 C 4.317739411691128 1.0541468197982158 4.308539481274916 1.0633467502144285 4.297190791976397 1.0633467502144285 Z M 3.947864256825979 1.0222495107849676 L 4.276642172261667 1.0222495107849676 L 4.276642172261667 0.9247668588582864 L 3.947864256825979 0.9247668588582864 Z" fill="#c84449" transform="matrix(1,0,0,1,0,0)" fill-rule="nonzero"></path></g><g clip-path="url(#SvgjsClipPath1001b75998ab-14df-4156-9e05-e63d7b1b26ca)"><path d=" M 4.161569901859176 1.1623089027605702 L 4.062566652073604 1.1623089027605702 C 4.020965086938698 1.1622862563075458 3.9872396511080432 1.1285792094822513 3.9871943149599733 1.0869776628863685 L 3.9871943149599733 1.0446475062740235 C 3.9871943149599733 1.0332988169755062 3.9963942453761856 1.0240988865592935 4.007742934674704 1.0240988865592935 L 4.216393619258077 1.0240988865592935 C 4.227742308556595 1.0240988865592935 4.236942238972808 1.0332988169755062 4.236942238972808 1.0446475062740235 L 4.236942238972808 1.0869776628863685 C 4.236896902824735 1.1285792094822558 4.203171466994077 1.162286256307549 4.1615699018591705 1.1623089027605702 Z M 4.028291554389434 1.0651961259887548 L 4.028291554389434 1.0869776628863685 C 4.028336820486774 1.105881837216463 4.043662437040633 1.1211890777312892 4.062566652073605 1.1212116633311089 L 4.161569901859176 1.1212116633311089 C 4.180474116892148 1.1211890777312883 4.195799733446007 1.105881837216463 4.195844999543346 1.0869776628863685 L 4.195844999543346 1.0651961259887548 Z" fill="#c84449" transform="matrix(1,0,0,1,0,0)" fill-rule="nonzero"></path></g><g clip-path="url(#SvgjsClipPath1001b75998ab-14df-4156-9e05-e63d7b1b26ca)"><path d=" M 4.156186163493917 0.6986087502779628 L 4.067991487678293 0.6986087502779628 C 4.056642798379776 0.6986087502779628 4.0474428679635635 0.6894088198617502 4.0474428679635635 0.6780601305632322 L 4.0474428679635635 0.6379903221195081 C 4.01689193021418 0.6310626820306484 3.9877192157920214 0.6190601938112462 3.9611386651616955 0.6024823072524544 L 3.9329870561525144 0.6306750135010645 C 3.9248232874825986 0.6383524924139399 3.9120950765458016 0.6383524924139399 3.9039313078758857 0.6306750135010645 L 3.841586795661393 0.5683305012865721 C 3.8335649856670924 0.5603062683397321 3.8335649856670924 0.5472989859567844 3.841586795661393 0.5392747530099438 L 3.869656210191715 0.5112053384796215 C 3.853006501294107 0.48462879116440394 3.840908452580089 0.45546013180799017 3.833860514648655 0.42490113567775445 L 3.7942427758386543 0.42490113567775445 C 3.7828940865401366 0.4249011356777539 3.773694156123924 0.4157012052615413 3.773694156123924 0.40435251596302335 L 3.773694156123924 0.31615784014739956 C 3.773694156123924 0.30480915084888166 3.7828940865401366 0.29560922043266946 3.7942427758386543 0.29560922043266946 L 3.833901611888084 0.29560922043266946 C 3.840949549819519 0.2650502243024333 3.853047598533536 0.23588156494601897 3.869697307431145 0.209305017630801 L 3.841627892900823 0.1812356031004797 C 3.8336060829065217 0.17321137015363908 3.8336060829065217 0.1602040877706914 3.841627892900823 0.15217985482385077 L 3.903972405115315 0.08983534260935888 C 3.90781672221655 0.08597895491994703 3.9130345167162734 0.08380610565235644 3.9184797306339147 0.08379404841322738 L 3.9184797306339147 0.08379404841322738 C 3.923939192209828 0.083795205027966 3.929173773555369 0.08596888711213113 3.933028153391944 0.08983534260935888 L 3.9611797624011245 0.11802804885796944 C 3.9877671773676306 0.10145440866746783 4.016936797087784 0.08943930340178571 4.047483965202992 0.08247893675148629 L 4.047483965202992 0.04240912830776172 C 4.047483965202993 0.03695929551597352 4.049648902850008 0.031732673686858726 4.053502516573413 0.02787905996345194 C 4.05735613029682 0.024025446240045656 4.062582752125935 0.02186050859303118 4.068032584917723 0.02186050859303118 L 4.156227260733346 0.02186050859303118 C 4.167575950031864 0.02186050859303118 4.176775880448076 0.031060439009243823 4.176775880448076 0.04240912830776172 L 4.176775880448076 0.08252003399091426 C 4.2071536046137785 0.08954930210780948 4.236142919282351 0.10160619004854701 4.262545819137362 0.11819243781568617 L 4.291313886737984 0.0896298564122113 C 4.299338119684824 0.08160804641790961 4.3123454020677725 0.08160804641790961 4.320369635014613 0.0896298564122113 L 4.382673049989676 0.15197436862670316 C 4.390694859983977 0.15999860157354379 4.390694859983977 0.17300588395649147 4.382673049989676 0.1810301169033316 L 4.353904982389053 0.2097981845039546 C 4.370377457857118 0.23622663887543865 4.382335790934385 0.26521274936586414 4.389289705537819 0.29556812319323955 L 4.430017069812415 0.29556812319323955 C 4.4413657591109335 0.29556812319323955 4.450565689527146 0.3047680536094522 4.450565689527146 0.3161167429079701 L 4.450565689527146 0.404311418723593 C 4.450565689527146 0.4156601080221114 4.4413657591109335 0.42486003843832354 4.430017069812415 0.42486003843832354 L 4.389289705537819 0.42486003843832354 C 4.382342448135411 0.4552046546498488 4.370383520833167 0.4841783159187001 4.353904982389053 0.5105888798881791 L 4.382673049989676 0.539356947488802 C 4.390694859983977 0.5473811804356422 4.390694859983977 0.5603884628185899 4.382673049989676 0.5684126957654305 L 4.320205246056895 0.6306750135010636 C 4.312181013110054 0.6386968234953653 4.299173730727107 0.6386968234953653 4.291149497780267 0.6306750135010636 L 4.262381430179643 0.601906945900441 C 4.235980164678358 0.6185055319513338 4.206991069052912 0.6305762191092222 4.176611491490359 0.6376204469646424 L 4.176611491490359 0.6778957416055146 C 4.176655245723818 0.6833526979287076 4.174526548465908 0.6886029388997272 4.170694851739499 0.6924886031856637 C 4.166863155013089 0.6963742674716007 4.161643198046847 0.6985761828969049 4.156186163493917 0.6986087502779628 Z M 4.088540107393024 0.6575115108485021 L 4.135637543779186 0.6575115108485021 L 4.135637543779186 0.6208938705168521 C 4.135635409881324 0.610875612602975 4.142858126752535 0.6023159986185809 4.15273399538184 0.6006329314781285 C 4.188972683790032 0.5945543586258393 4.2233423383961375 0.580272326282362 4.253216745786874 0.5588781362177951 C 4.261378057404784 0.5530637755358595 4.272543149984575 0.5539840708806945 4.279642270740017 0.561056289907557 L 4.305656823298866 0.5870297452269763 L 4.338945587236729 0.5537820785285428 L 4.312889937438451 0.5277264287302641 C 4.305804801219315 0.520637816131994 4.304867075220664 0.5094719306295407 4.31067068650926 0.5013009037771212 C 4.331941044530735 0.4714080297294352 4.346109380109863 0.437055438305438 4.352096703854157 0.4008592506115176 C 4.3537619130876895 0.39096704706249374 4.362326261569482 0.38372296325537825 4.372357642892881 0.383721701769433 L 4.409345158379396 0.383721701769433 L 4.409345158379396 0.3367064598621301 L 4.372357642892881 0.3367064598621301 C 4.362326261569482 0.33670519837618484 4.3537619130876895 0.32946111456906985 4.352096703854157 0.3195689110200451 C 4.346109380109863 0.28337272332612456 4.331941044530735 0.2490201319021274 4.31067068650926 0.21912725785444243 C 4.304867075220664 0.2109562310020225 4.305804801219315 0.1997903454995696 4.312889937438451 0.192701732901299 L 4.338945587236729 0.16664608310302087 L 4.305656823298866 0.13335731916515742 L 4.279642270740017 0.15933077448457672 C 4.272547668469241 0.16643858985386434 4.261354854876436 0.16737711770170782 4.253175648547445 0.161550025413768 C 4.223328988539677 0.14013341226844372 4.188967245574607 0.12584882517658164 4.152733995381842 0.11979523015343468 C 4.142842794165047 0.11810957503947792 4.135615343100941 0.10952697690085164 4.135637543779186 0.0994931938752816 L 4.135637543779186 0.06291665078306141 L 4.088540107393024 0.06291665078306141 L 4.088540107393024 0.09936990215699334 C 4.088535483326323 0.10941443759030539 4.081269998364909 0.1179835382744604 4.071361461311508 0.11963084119571743 C 4.034996604380214 0.1255625444505606 4.000478845297123 0.13976333331977475 3.9704677385121827 0.16113905301947234 C 3.9622967116597634 0.16694266430806987 3.95113082615731 0.16600493830941843 3.9440422135590394 0.158919802090282 L 3.9184797306339147 0.13335731916515742 L 3.885232063935481 0.16664608310302087 L 3.9107123523817466 0.19212637154928658 C 3.917807256323476 0.19923150369178488 3.918728338533708 0.2104235214915849 3.9128905060715082 0.21859299374185992 C 3.89139672067354 0.24860395927332912 3.877083087971192 0.28315071325139274 3.8710535163323168 0.3195689110200451 C 3.8693857433880314 0.3294764516163736 3.8607983936493007 0.3367252873270025 3.8507514800541633 0.3367064598621301 L 3.8147913955533848 0.3367064598621301 L 3.8147913955533848 0.3837627990088629 L 3.8507514800541633 0.3837627990088629 C 3.8607983936493007 0.38374397154399054 3.8693857433880314 0.3909928072546194 3.8710535163323168 0.40090034785094797 C 3.877094468142316 0.43726481820719854 3.891408210750874 0.4717555948464841 3.9128905060715082 0.5017118761714159 C 3.9187518731628526 0.5098894785796337 3.917830001237061 0.5211084859784149 3.9107123523817466 0.5282195956034187 L 3.885232063935481 0.5536998840496838 L 3.9184797306339147 0.5869475507481174 L 3.9440422135590394 0.5613850678229928 C 3.95113082615731 0.5542999316038564 3.9622967116597634 0.5533622056052054 3.9704677385121827 0.5591658168938021 C 4.000475814065154 0.5805548485354893 4.0349935233617185 0.5947696770889827 4.0713614613115094 0.6007151259569868 C 4.081269998364911 0.6023624288782449 4.088535483326325 0.6109315295624003 4.088540107393024 0.6209760649957109 Z" fill="#c84449" transform="matrix(1,0,0,1,0,0)" fill-rule="nonzero"></path></g><g clip-path="url(#SvgjsClipPath1001b75998ab-14df-4156-9e05-e63d7b1b26ca)"><path d=" M 4.111595658712951 0.5572753438800471 C 4.002783143877642 0.5572979776326922 3.9145463403265235 0.46912241296553236 3.9144934288471105 0.3603099086406776 C 3.9144405173676975 0.2514974043158223 4.00259152620736 0.16323606880677377 4.111404011596804 0.16315287960468916 C 4.2202164969862475 0.163069690402605 4.3085023576194725 0.2511961365895579 4.308615824537787 0.3600085946186354 C 4.30861590956573 0.46885978768935344 4.2204467666998875 0.5571392799008822 4.11159565869105 0.5572753438800746 Z M 4.111595658712951 0.20429115442040752 C 4.048506622875018 0.2042745323576695 3.9916212692727377 0.24226785336131113 3.9674704614733574 0.30055134332107875 C 3.943319653673977 0.3588348332808468 3.9566606615455626 0.4259277047674107 4.001271348153443 0.4705383913752911 C 4.045882034761323 0.5151490779831709 4.112974906247887 0.5284900858547569 4.171258396207655 0.5043392780553765 C 4.229541886167423 0.48018847025599654 4.267535207171065 0.42330311665371534 4.267518585108326 0.36021408081578254 C 4.267382811698325 0.2741565283471891 4.197653211181558 0.20442692783041594 4.111595658712958 0.20429115442040702 Z" fill="#c84449" transform="matrix(1,0,0,1,0,0)" fill-rule="nonzero"></path></g><g clip-path="url(#SvgjsClipPath1001b75998ab-14df-4156-9e05-e63d7b1b26ca)"><path d=" M 4.769809045415197 0.375789934559547 L 4.638297879240922 0.375789934559547 C 4.626949189942405 0.375789934559547 4.617749259526192 0.36659000414333487 4.617749259526192 0.35524131484481697 C 4.617749259526192 0.34389262554629907 4.626949189942405 0.3346926951300864 4.638297879240922 0.3346926951300864 L 4.769809045415197 0.3346926951300864 C 4.781157734713716 0.3346926951300864 4.790357665129928 0.34389262554629907 4.790357665129928 0.35524131484481697 C 4.790357665129928 0.36659000414333487 4.781157734713716 0.375789934559547 4.769809045415197 0.375789934559547 Z" fill="#c84449" transform="matrix(1,0,0,1,0,0)" fill-rule="nonzero"></path></g><g clip-path="url(#SvgjsClipPath1001b75998ab-14df-4156-9e05-e63d7b1b26ca)"><path d=" M 4.485662731999905 0.002709195018901489 C 4.477365708698465 0.0026908635341570397 4.469893786887505 -0.002315419214993092 4.466721132800711 -0.009981917617361072 C 4.463548478713916 -0.01764841601973001 4.465297673482603 -0.026470705981793158 4.471155406481305 -0.03234675021442858 L 4.564322848267893 -0.12534980304329932 C 4.5723856928002125 -0.13313715885892932 4.585201987948825 -0.1330257887180406 4.5931282850840445 -0.12509949158282185 C 4.6010545822192634 -0.11717319444760214 4.601165952360152 -0.10435689929899 4.593378596544522 -0.09629405476667038 L 4.500211154757934 -0.0032910019377996313 C 4.496350038961685 0.0005603826595622363 4.491116288971575 0.0027189349153702025 4.485662731999905 0.002709195018901489 Z" fill="#c84449" transform="matrix(1,0,0,1,0,0)" fill-rule="nonzero"></path></g><g clip-path="url(#SvgjsClipPath1001b75998ab-14df-4156-9e05-e63d7b1b26ca)"><path d=" M 4.578665784828775 0.8367776692398105 C 4.573212227857104 0.8367874091362787 4.567978477866996 0.8346288568804707 4.564117362070746 0.8307774722831088 L 4.471155406481305 0.7377744194542386 C 4.465813657485036 0.7326151856447578 4.463671340326158 0.7249751385198955 4.4655518563133905 0.7177907362857635 C 4.467432372300623 0.710606334051632 4.473043069355327 0.7049956369969272 4.480227471589458 0.7031151210096952 C 4.487411873823591 0.7012346050224632 4.495051920948453 0.7033769221813411 4.500211154757934 0.7087186711776101 L 4.593090915868515 0.8017217240064805 C 4.598948648867218 0.8075977682391158 4.600697843635905 0.816420058201179 4.59752518954911 0.8240865566035475 C 4.594352535462315 0.8317530550059155 4.586880613651356 0.8367593377550655 4.578583590349917 0.8367776692398105 Z" fill="#c84449" transform="matrix(1,0,0,1,0,0)" fill-rule="nonzero"></path></g><g clip-path="url(#SvgjsClipPath1001b75998ab-14df-4156-9e05-e63d7b1b26ca)"><path d=" M 3.5862085498467233 0.375789934559547 L 3.4546973836724484 0.375789934559547 C 3.44334869437393 0.375789934559547 3.434148763957718 0.36659000414333487 3.434148763957718 0.35524131484481697 C 3.434148763957718 0.34389262554629907 3.44334869437393 0.3346926951300864 3.4546973836724484 0.3346926951300864 L 3.5862085498467233 0.3346926951300864 C 3.5975572391452415 0.3346926951300864 3.6067571695614538 0.34389262554629907 3.6067571695614538 0.35524131484481697 C 3.6067571695614538 0.36659000414333487 3.5975572391452415 0.375789934559547 3.5862085498467233 0.375789934559547 Z" fill="#c84449" transform="matrix(1,0,0,1,0,0)" fill-rule="nonzero"></path></g><g clip-path="url(#SvgjsClipPath1001b75998ab-14df-4156-9e05-e63d7b1b26ca)"><path d=" M 3.738473821932876 0.002709195018901489 C 3.733020264961205 0.0027189349153702025 3.727786514971096 0.0005603826595622363 3.723925399174847 -0.0032910019377996313 L 3.630963443585406 -0.09629405476666988 C 3.6231760877697767 -0.10435689929898952 3.6232874579106653 -0.11717319444760119 3.6312137550458847 -0.1250994915828204 C 3.639140052181104 -0.13302578871803963 3.651956347329716 -0.13313715885892835 3.6600191918620353 -0.12534980304329882 L 3.7529811474514756 -0.03234675021442858 C 3.758838880450178 -0.026470705981793158 3.760588075218865 -0.01764841601973001 3.75741542113207 -0.009981917617361558 C 3.7542427670452754 -0.002315419214993092 3.746770845234316 0.00269086353415654 3.738473821932876 0.002709195018901489 Z" fill="#c84449" transform="matrix(1,0,0,1,0,0)" fill-rule="nonzero"></path></g><g clip-path="url(#SvgjsClipPath1001b75998ab-14df-4156-9e05-e63d7b1b26ca)"><path d=" M 3.645470769104006 0.8367776692398105 C 3.6371737458025657 0.8367593377550651 3.629701823991607 0.8317530550059155 3.6265291699048117 0.8240865566035469 C 3.623356515818017 0.816420058201179 3.6251057105867037 0.8075977682391158 3.630963443585406 0.8017217240064805 L 3.723925399174847 0.7087186711776101 C 3.729084632984328 0.7033769221813411 3.73672468010919 0.7012346050224632 3.743909082343322 0.7031151210096952 C 3.751093484577454 0.7049956369969272 3.7567041816321582 0.7106063340516314 3.75858469761939 0.7177907362857635 C 3.760465213606622 0.7249751385198955 3.7583228964477446 0.7326151856447578 3.7529811474514756 0.7377744194542386 L 3.660183580819753 0.8307774722831088 C 3.6562822723015524 0.8346694535123769 3.6509811996789017 0.836831343464631 3.645470769104006 0.8367776692398105 Z" fill="#c84449" transform="matrix(1,0,0,1,0,0)" fill-rule="nonzero"></path></g></g></g><defs><clipPath id="SvgjsClipPath1003"><path d=" M 3.433984375 -0.13134999999999997 h 1.35620890117221 v 1.2937 h -1.35620890117221 Z"></path></clipPath><clipPath id="SvgjsClipPath1001b75998ab-14df-4156-9e05-e63d7b1b26ca"><path d=" M 3.433984375 -0.13134999999999997 L 4.79019327617221 -0.13134999999999997 L 4.79019327617221 1.16235 L 3.433984375 1.16235 Z"></path></clipPath></defs></svg>